<?xml version="1.0" encoding="utf-8" standalone="no"?>
<!DOCTYPE svg PUBLIC "-//W3C//DTD SVG 1.1//EN"
  "http://www.w3.org/Graphics/SVG/1.1/DTD/svg11.dtd">
<svg xmlns:xlink="http://www.w3.org/1999/xlink" width="459.649062pt" height="365.0725pt" viewBox="0 0 459.649062 365.0725" xmlns="http://www.w3.org/2000/svg" version="1.1">
 <metadata>
  <rdf:RDF xmlns:dc="http://purl.org/dc/elements/1.1/" xmlns:cc="http://creativecommons.org/ns#" xmlns:rdf="http://www.w3.org/1999/02/22-rdf-syntax-ns#">
   <cc:Work>
    <dc:type rdf:resource="http://purl.org/dc/dcmitype/StillImage"/>
    <dc:date>2026-03-26T18:48:24.508120</dc:date>
    <dc:format>image/svg+xml</dc:format>
    <dc:creator>
     <cc:Agent>
      <dc:title>Matplotlib v3.10.6, https://matplotlib.org/</dc:title>
     </cc:Agent>
    </dc:creator>
   </cc:Work>
  </rdf:RDF>
 </metadata>
 <defs>
  <style type="text/css">*{stroke-linejoin: round; stroke-linecap: butt}</style>
 </defs>
 <g id="figure_1">
  <g id="patch_1">
   <path d="M 0 365.0725 
L 459.649062 365.0725 
L 459.649062 0 
L 0 0 
z
" style="fill: #ffffff"/>
  </g>
  <g id="axes_1">
   <g id="patch_2">
    <path d="M 56.071563 339.84 
L 446.671563 339.84 
L 446.671563 7.2 
L 56.071563 7.2 
z
" style="fill: #ffffff"/>
   </g>
   <g id="matplotlib.axis_1">
    <g id="xtick_1">
     <g id="line2d_1">
      <path d="M 56.071563 339.84 
L 56.071563 7.2 
" clip-path="url(#pfd114e50f5)" style="fill: none; stroke: #000000; stroke-width: 0.8; stroke-linecap: square"/>
     </g>
     <g id="line2d_2">
      <defs>
       <path id="m3306d23ebc" d="M 0 0 
L 0 -5.25 
" style="stroke: #000000; stroke-width: 1.2"/>
      </defs>
      <g>
       <use xlink:href="#m3306d23ebc" x="56.071563" y="339.84" style="stroke: #000000; stroke-width: 1.2"/>
      </g>
     </g>
     <g id="text_1">
      <!-- L -->
      <g transform="translate(51.185313 354.45) scale(0.16 -0.16)">
       <defs>
        <path id="TimesNewRomanPSMT-4c" d="M 3669 1172 
L 3772 1150 
L 3409 0 
L 128 0 
L 128 116 
L 288 116 
Q 556 116 672 291 
Q 738 391 738 753 
L 738 3488 
Q 738 3884 650 3984 
Q 528 4122 288 4122 
L 128 4122 
L 128 4238 
L 2047 4238 
L 2047 4122 
Q 1709 4125 1573 4059 
Q 1438 3994 1388 3894 
Q 1338 3794 1338 3416 
L 1338 753 
Q 1338 494 1388 397 
Q 1425 331 1503 300 
Q 1581 269 1991 269 
L 2300 269 
Q 2788 269 2984 341 
Q 3181 413 3343 595 
Q 3506 778 3669 1172 
z
" transform="scale(0.015625)"/>
       </defs>
       <use xlink:href="#TimesNewRomanPSMT-4c"/>
      </g>
     </g>
    </g>
    <g id="xtick_2">
     <g id="line2d_3">
      <path d="M 237.349653 339.84 
L 237.349653 7.2 
" clip-path="url(#pfd114e50f5)" style="fill: none; stroke: #000000; stroke-width: 0.8; stroke-linecap: square"/>
     </g>
     <g id="line2d_4">
      <g>
       <use xlink:href="#m3306d23ebc" x="237.349653" y="339.84" style="stroke: #000000; stroke-width: 1.2"/>
      </g>
     </g>
     <g id="text_2">
      <!-- $\Gamma$ -->
      <g transform="translate(232.309653 354.45) scale(0.16 -0.16)">
       <defs>
        <path id="Cmr10-a1" d="M 197 0 
L 197 225 
Q 856 225 856 428 
L 856 3944 
Q 856 4147 197 4147 
L 197 4372 
L 3547 4372 
L 3725 2906 
L 3541 2906 
Q 3494 3313 3433 3534 
Q 3372 3756 3247 3892 
Q 3122 4028 2897 4087 
Q 2672 4147 2272 4147 
L 1778 4147 
Q 1663 4147 1598 4137 
Q 1534 4128 1493 4083 
Q 1453 4038 1453 3944 
L 1453 428 
Q 1453 225 2272 225 
L 2272 0 
L 197 0 
z
" transform="scale(0.015625)"/>
       </defs>
       <use xlink:href="#Cmr10-a1" transform="translate(0 0.6875)"/>
      </g>
     </g>
    </g>
    <g id="xtick_3">
     <g id="line2d_5">
      <path d="M 446.671563 339.84 
L 446.671563 7.2 
" clip-path="url(#pfd114e50f5)" style="fill: none; stroke: #000000; stroke-width: 0.8; stroke-linecap: square"/>
     </g>
     <g id="line2d_6">
      <g>
       <use xlink:href="#m3306d23ebc" x="446.671563" y="339.84" style="stroke: #000000; stroke-width: 1.2"/>
      </g>
     </g>
     <g id="text_3">
      <!-- X -->
      <g transform="translate(440.894063 354.45) scale(0.16 -0.16)">
       <defs>
        <path id="TimesNewRomanPSMT-58" d="M 2613 2347 
L 3522 991 
Q 3900 428 4083 279 
Q 4266 131 4547 116 
L 4547 0 
L 2728 0 
L 2728 116 
Q 2909 119 2997 153 
Q 3063 181 3105 239 
Q 3147 297 3147 356 
Q 3147 428 3119 500 
Q 3097 553 2947 775 
L 2228 1863 
L 1341 725 
Q 1200 544 1172 483 
Q 1144 422 1144 356 
Q 1144 256 1228 190 
Q 1313 125 1550 116 
L 1550 0 
L 47 0 
L 47 116 
Q 206 131 322 181 
Q 516 263 691 400 
Q 866 538 1091 822 
L 2091 2084 
L 1256 3306 
Q 916 3803 678 3958 
Q 441 4113 131 4122 
L 131 4238 
L 2091 4238 
L 2091 4122 
Q 1841 4113 1748 4041 
Q 1656 3969 1656 3881 
Q 1656 3766 1806 3544 
L 2456 2572 
L 3209 3525 
Q 3341 3694 3370 3756 
Q 3400 3819 3400 3884 
Q 3400 3950 3363 4000 
Q 3316 4066 3244 4092 
Q 3172 4119 2947 4122 
L 2947 4238 
L 4450 4238 
L 4450 4122 
Q 4272 4113 4159 4066 
Q 3991 3994 3850 3872 
Q 3709 3750 3453 3422 
L 2613 2347 
z
" transform="scale(0.015625)"/>
       </defs>
       <use xlink:href="#TimesNewRomanPSMT-58"/>
      </g>
     </g>
    </g>
   </g>
   <g id="matplotlib.axis_2">
    <g id="ytick_1">
     <g id="line2d_7">
      <defs>
       <path id="m5fadfd4185" d="M 0 0 
L 5.25 0 
" style="stroke: #000000; stroke-width: 1.2"/>
      </defs>
      <g>
       <use xlink:href="#m5fadfd4185" x="56.071563" y="339.84" style="stroke: #000000; stroke-width: 1.2"/>
      </g>
     </g>
     <g id="text_4">
      <!-- −10 -->
      <g transform="translate(27.549063 345.395) scale(0.16 -0.16)">
       <defs>
        <path id="TimesNewRomanPSMT-2212" d="M 3484 2000 
L 116 2000 
L 116 2256 
L 3484 2256 
L 3484 2000 
z
" transform="scale(0.015625)"/>
        <path id="TimesNewRomanPSMT-31" d="M 750 3822 
L 1781 4325 
L 1884 4325 
L 1884 747 
Q 1884 391 1914 303 
Q 1944 216 2037 169 
Q 2131 122 2419 116 
L 2419 0 
L 825 0 
L 825 116 
Q 1125 122 1212 167 
Q 1300 213 1334 289 
Q 1369 366 1369 747 
L 1369 3034 
Q 1369 3497 1338 3628 
Q 1316 3728 1258 3775 
Q 1200 3822 1119 3822 
Q 1003 3822 797 3725 
L 750 3822 
z
" transform="scale(0.015625)"/>
        <path id="TimesNewRomanPSMT-30" d="M 231 2094 
Q 231 2819 450 3342 
Q 669 3866 1031 4122 
Q 1313 4325 1613 4325 
Q 2100 4325 2488 3828 
Q 2972 3213 2972 2159 
Q 2972 1422 2759 906 
Q 2547 391 2217 158 
Q 1888 -75 1581 -75 
Q 975 -75 572 641 
Q 231 1244 231 2094 
z
M 844 2016 
Q 844 1141 1059 588 
Q 1238 122 1591 122 
Q 1759 122 1940 273 
Q 2122 425 2216 781 
Q 2359 1319 2359 2297 
Q 2359 3022 2209 3506 
Q 2097 3866 1919 4016 
Q 1791 4119 1609 4119 
Q 1397 4119 1231 3928 
Q 1006 3669 925 3112 
Q 844 2556 844 2016 
z
" transform="scale(0.015625)"/>
       </defs>
       <use xlink:href="#TimesNewRomanPSMT-2212"/>
       <use xlink:href="#TimesNewRomanPSMT-31" transform="translate(56.396484 0)"/>
       <use xlink:href="#TimesNewRomanPSMT-30" transform="translate(106.396484 0)"/>
      </g>
     </g>
    </g>
    <g id="ytick_2">
     <g id="line2d_8">
      <g>
       <use xlink:href="#m5fadfd4185" x="56.071563" y="275.870769" style="stroke: #000000; stroke-width: 1.2"/>
      </g>
     </g>
     <g id="text_5">
      <!-- −5 -->
      <g transform="translate(35.549063 281.425769) scale(0.16 -0.16)">
       <defs>
        <path id="TimesNewRomanPSMT-35" d="M 2778 4238 
L 2534 3706 
L 1259 3706 
L 981 3138 
Q 1809 3016 2294 2522 
Q 2709 2097 2709 1522 
Q 2709 1188 2573 903 
Q 2438 619 2231 419 
Q 2025 219 1772 97 
Q 1413 -75 1034 -75 
Q 653 -75 479 54 
Q 306 184 306 341 
Q 306 428 378 495 
Q 450 563 559 563 
Q 641 563 702 538 
Q 763 513 909 409 
Q 1144 247 1384 247 
Q 1750 247 2026 523 
Q 2303 800 2303 1197 
Q 2303 1581 2056 1914 
Q 1809 2247 1375 2428 
Q 1034 2569 447 2591 
L 1259 4238 
L 2778 4238 
z
" transform="scale(0.015625)"/>
       </defs>
       <use xlink:href="#TimesNewRomanPSMT-2212"/>
       <use xlink:href="#TimesNewRomanPSMT-35" transform="translate(56.396484 0)"/>
      </g>
     </g>
    </g>
    <g id="ytick_3">
     <g id="line2d_9">
      <g>
       <use xlink:href="#m5fadfd4185" x="56.071563" y="211.901538" style="stroke: #000000; stroke-width: 1.2"/>
      </g>
     </g>
     <g id="text_6">
      <!-- 0 -->
      <g transform="translate(44.571563 217.456538) scale(0.16 -0.16)">
       <use xlink:href="#TimesNewRomanPSMT-30"/>
      </g>
     </g>
    </g>
    <g id="ytick_4">
     <g id="line2d_10">
      <g>
       <use xlink:href="#m5fadfd4185" x="56.071563" y="147.932308" style="stroke: #000000; stroke-width: 1.2"/>
      </g>
     </g>
     <g id="text_7">
      <!-- 5 -->
      <g transform="translate(44.571563 153.487308) scale(0.16 -0.16)">
       <use xlink:href="#TimesNewRomanPSMT-35"/>
      </g>
     </g>
    </g>
    <g id="ytick_5">
     <g id="line2d_11">
      <g>
       <use xlink:href="#m5fadfd4185" x="56.071563" y="83.963077" style="stroke: #000000; stroke-width: 1.2"/>
      </g>
     </g>
     <g id="text_8">
      <!-- 10 -->
      <g transform="translate(36.571563 89.518077) scale(0.16 -0.16)">
       <use xlink:href="#TimesNewRomanPSMT-31"/>
       <use xlink:href="#TimesNewRomanPSMT-30" transform="translate(50 0)"/>
      </g>
     </g>
    </g>
    <g id="ytick_6">
     <g id="line2d_12">
      <g>
       <use xlink:href="#m5fadfd4185" x="56.071563" y="19.993846" style="stroke: #000000; stroke-width: 1.2"/>
      </g>
     </g>
     <g id="text_9">
      <!-- 15 -->
      <g transform="translate(36.571563 25.548846) scale(0.16 -0.16)">
       <use xlink:href="#TimesNewRomanPSMT-31"/>
       <use xlink:href="#TimesNewRomanPSMT-35" transform="translate(50 0)"/>
      </g>
     </g>
    </g>
    <g id="ytick_7">
     <g id="line2d_13">
      <defs>
       <path id="mc29c648c8d" d="M 0 0 
L 3 0 
" style="stroke: #000000; stroke-width: 0.9"/>
      </defs>
      <g>
       <use xlink:href="#mc29c648c8d" x="56.071563" y="327.046154" style="stroke: #000000; stroke-width: 0.9"/>
      </g>
     </g>
    </g>
    <g id="ytick_8">
     <g id="line2d_14">
      <g>
       <use xlink:href="#mc29c648c8d" x="56.071563" y="314.252308" style="stroke: #000000; stroke-width: 0.9"/>
      </g>
     </g>
    </g>
    <g id="ytick_9">
     <g id="line2d_15">
      <g>
       <use xlink:href="#mc29c648c8d" x="56.071563" y="301.458462" style="stroke: #000000; stroke-width: 0.9"/>
      </g>
     </g>
    </g>
    <g id="ytick_10">
     <g id="line2d_16">
      <g>
       <use xlink:href="#mc29c648c8d" x="56.071563" y="288.664615" style="stroke: #000000; stroke-width: 0.9"/>
      </g>
     </g>
    </g>
    <g id="ytick_11">
     <g id="line2d_17">
      <g>
       <use xlink:href="#mc29c648c8d" x="56.071563" y="263.076923" style="stroke: #000000; stroke-width: 0.9"/>
      </g>
     </g>
    </g>
    <g id="ytick_12">
     <g id="line2d_18">
      <g>
       <use xlink:href="#mc29c648c8d" x="56.071563" y="250.283077" style="stroke: #000000; stroke-width: 0.9"/>
      </g>
     </g>
    </g>
    <g id="ytick_13">
     <g id="line2d_19">
      <g>
       <use xlink:href="#mc29c648c8d" x="56.071563" y="237.489231" style="stroke: #000000; stroke-width: 0.9"/>
      </g>
     </g>
    </g>
    <g id="ytick_14">
     <g id="line2d_20">
      <g>
       <use xlink:href="#mc29c648c8d" x="56.071563" y="224.695385" style="stroke: #000000; stroke-width: 0.9"/>
      </g>
     </g>
    </g>
    <g id="ytick_15">
     <g id="line2d_21">
      <g>
       <use xlink:href="#mc29c648c8d" x="56.071563" y="199.107692" style="stroke: #000000; stroke-width: 0.9"/>
      </g>
     </g>
    </g>
    <g id="ytick_16">
     <g id="line2d_22">
      <g>
       <use xlink:href="#mc29c648c8d" x="56.071563" y="186.313846" style="stroke: #000000; stroke-width: 0.9"/>
      </g>
     </g>
    </g>
    <g id="ytick_17">
     <g id="line2d_23">
      <g>
       <use xlink:href="#mc29c648c8d" x="56.071563" y="173.52" style="stroke: #000000; stroke-width: 0.9"/>
      </g>
     </g>
    </g>
    <g id="ytick_18">
     <g id="line2d_24">
      <g>
       <use xlink:href="#mc29c648c8d" x="56.071563" y="160.726154" style="stroke: #000000; stroke-width: 0.9"/>
      </g>
     </g>
    </g>
    <g id="ytick_19">
     <g id="line2d_25">
      <g>
       <use xlink:href="#mc29c648c8d" x="56.071563" y="135.138462" style="stroke: #000000; stroke-width: 0.9"/>
      </g>
     </g>
    </g>
    <g id="ytick_20">
     <g id="line2d_26">
      <g>
       <use xlink:href="#mc29c648c8d" x="56.071563" y="122.344615" style="stroke: #000000; stroke-width: 0.9"/>
      </g>
     </g>
    </g>
    <g id="ytick_21">
     <g id="line2d_27">
      <g>
       <use xlink:href="#mc29c648c8d" x="56.071563" y="109.550769" style="stroke: #000000; stroke-width: 0.9"/>
      </g>
     </g>
    </g>
    <g id="ytick_22">
     <g id="line2d_28">
      <g>
       <use xlink:href="#mc29c648c8d" x="56.071563" y="96.756923" style="stroke: #000000; stroke-width: 0.9"/>
      </g>
     </g>
    </g>
    <g id="ytick_23">
     <g id="line2d_29">
      <g>
       <use xlink:href="#mc29c648c8d" x="56.071563" y="71.169231" style="stroke: #000000; stroke-width: 0.9"/>
      </g>
     </g>
    </g>
    <g id="ytick_24">
     <g id="line2d_30">
      <g>
       <use xlink:href="#mc29c648c8d" x="56.071563" y="58.375385" style="stroke: #000000; stroke-width: 0.9"/>
      </g>
     </g>
    </g>
    <g id="ytick_25">
     <g id="line2d_31">
      <g>
       <use xlink:href="#mc29c648c8d" x="56.071563" y="45.581538" style="stroke: #000000; stroke-width: 0.9"/>
      </g>
     </g>
    </g>
    <g id="ytick_26">
     <g id="line2d_32">
      <g>
       <use xlink:href="#mc29c648c8d" x="56.071563" y="32.787692" style="stroke: #000000; stroke-width: 0.9"/>
      </g>
     </g>
    </g>
    <g id="ytick_27">
     <g id="line2d_33">
      <g>
       <use xlink:href="#mc29c648c8d" x="56.071563" y="7.2" style="stroke: #000000; stroke-width: 0.9"/>
      </g>
     </g>
    </g>
    <g id="text_10">
     <!-- Energy [eV] -->
     <g transform="translate(19.665 218.089688) rotate(-90) scale(0.18 -0.18)">
      <defs>
       <path id="TimesNewRomanPSMT-45" d="M 1338 4006 
L 1338 2331 
L 2269 2331 
Q 2631 2331 2753 2441 
Q 2916 2584 2934 2947 
L 3050 2947 
L 3050 1472 
L 2934 1472 
Q 2891 1781 2847 1869 
Q 2791 1978 2662 2040 
Q 2534 2103 2269 2103 
L 1338 2103 
L 1338 706 
Q 1338 425 1363 364 
Q 1388 303 1450 267 
Q 1513 231 1688 231 
L 2406 231 
Q 2766 231 2928 281 
Q 3091 331 3241 478 
Q 3434 672 3638 1063 
L 3763 1063 
L 3397 0 
L 131 0 
L 131 116 
L 281 116 
Q 431 116 566 188 
Q 666 238 702 338 
Q 738 438 738 747 
L 738 3500 
Q 738 3903 656 3997 
Q 544 4122 281 4122 
L 131 4122 
L 131 4238 
L 3397 4238 
L 3444 3309 
L 3322 3309 
Q 3256 3644 3176 3769 
Q 3097 3894 2941 3959 
Q 2816 4006 2500 4006 
L 1338 4006 
z
" transform="scale(0.015625)"/>
       <path id="TimesNewRomanPSMT-6e" d="M 1034 2341 
Q 1538 2947 1994 2947 
Q 2228 2947 2397 2830 
Q 2566 2713 2666 2444 
Q 2734 2256 2734 1869 
L 2734 647 
Q 2734 375 2778 278 
Q 2813 200 2889 156 
Q 2966 113 3172 113 
L 3172 0 
L 1756 0 
L 1756 113 
L 1816 113 
Q 2016 113 2095 173 
Q 2175 234 2206 353 
Q 2219 400 2219 647 
L 2219 1819 
Q 2219 2209 2117 2386 
Q 2016 2563 1775 2563 
Q 1403 2563 1034 2156 
L 1034 647 
Q 1034 356 1069 288 
Q 1113 197 1189 155 
Q 1266 113 1500 113 
L 1500 0 
L 84 0 
L 84 113 
L 147 113 
Q 366 113 442 223 
Q 519 334 519 647 
L 519 1709 
Q 519 2225 495 2337 
Q 472 2450 423 2490 
Q 375 2531 294 2531 
Q 206 2531 84 2484 
L 38 2597 
L 900 2947 
L 1034 2947 
L 1034 2341 
z
" transform="scale(0.015625)"/>
       <path id="TimesNewRomanPSMT-65" d="M 681 1784 
Q 678 1147 991 784 
Q 1303 422 1725 422 
Q 2006 422 2214 576 
Q 2422 731 2563 1106 
L 2659 1044 
Q 2594 616 2278 264 
Q 1963 -88 1488 -88 
Q 972 -88 605 314 
Q 238 716 238 1394 
Q 238 2128 614 2539 
Q 991 2950 1559 2950 
Q 2041 2950 2350 2633 
Q 2659 2316 2659 1784 
L 681 1784 
z
M 681 1966 
L 2006 1966 
Q 1991 2241 1941 2353 
Q 1863 2528 1708 2628 
Q 1553 2728 1384 2728 
Q 1125 2728 920 2526 
Q 716 2325 681 1966 
z
" transform="scale(0.015625)"/>
       <path id="TimesNewRomanPSMT-72" d="M 1038 2947 
L 1038 2303 
Q 1397 2947 1775 2947 
Q 1947 2947 2059 2842 
Q 2172 2738 2172 2600 
Q 2172 2478 2090 2393 
Q 2009 2309 1897 2309 
Q 1788 2309 1652 2417 
Q 1516 2525 1450 2525 
Q 1394 2525 1328 2463 
Q 1188 2334 1038 2041 
L 1038 669 
Q 1038 431 1097 309 
Q 1138 225 1241 169 
Q 1344 113 1538 113 
L 1538 0 
L 72 0 
L 72 113 
Q 291 113 397 181 
Q 475 231 506 341 
Q 522 394 522 644 
L 522 1753 
Q 522 2253 501 2348 
Q 481 2444 426 2487 
Q 372 2531 291 2531 
Q 194 2531 72 2484 
L 41 2597 
L 906 2947 
L 1038 2947 
z
" transform="scale(0.015625)"/>
       <path id="TimesNewRomanPSMT-67" d="M 966 1044 
Q 703 1172 562 1401 
Q 422 1631 422 1909 
Q 422 2334 742 2640 
Q 1063 2947 1563 2947 
Q 1972 2947 2272 2747 
L 2878 2747 
Q 3013 2747 3034 2739 
Q 3056 2731 3066 2713 
Q 3084 2684 3084 2613 
Q 3084 2531 3069 2500 
Q 3059 2484 3036 2475 
Q 3013 2466 2878 2466 
L 2506 2466 
Q 2681 2241 2681 1891 
Q 2681 1491 2375 1206 
Q 2069 922 1553 922 
Q 1341 922 1119 984 
Q 981 866 932 777 
Q 884 688 884 625 
Q 884 572 936 522 
Q 988 472 1138 450 
Q 1225 438 1575 428 
Q 2219 413 2409 384 
Q 2700 344 2873 169 
Q 3047 -6 3047 -263 
Q 3047 -616 2716 -925 
Q 2228 -1381 1444 -1381 
Q 841 -1381 425 -1109 
Q 191 -953 191 -784 
Q 191 -709 225 -634 
Q 278 -519 444 -313 
Q 466 -284 763 25 
Q 600 122 533 198 
Q 466 275 466 372 
Q 466 481 555 628 
Q 644 775 966 1044 
z
M 1509 2797 
Q 1278 2797 1122 2612 
Q 966 2428 966 2047 
Q 966 1553 1178 1281 
Q 1341 1075 1591 1075 
Q 1828 1075 1981 1253 
Q 2134 1431 2134 1813 
Q 2134 2309 1919 2591 
Q 1759 2797 1509 2797 
z
M 934 0 
Q 788 -159 713 -296 
Q 638 -434 638 -550 
Q 638 -700 819 -813 
Q 1131 -1006 1722 -1006 
Q 2284 -1006 2551 -807 
Q 2819 -609 2819 -384 
Q 2819 -222 2659 -153 
Q 2497 -84 2016 -72 
Q 1313 -53 934 0 
z
" transform="scale(0.015625)"/>
       <path id="TimesNewRomanPSMT-79" d="M 38 2863 
L 1372 2863 
L 1372 2747 
L 1306 2747 
Q 1166 2747 1095 2686 
Q 1025 2625 1025 2534 
Q 1025 2413 1128 2197 
L 1825 753 
L 2466 2334 
Q 2519 2463 2519 2588 
Q 2519 2644 2497 2672 
Q 2472 2706 2419 2726 
Q 2366 2747 2231 2747 
L 2231 2863 
L 3163 2863 
L 3163 2747 
Q 3047 2734 2984 2696 
Q 2922 2659 2847 2556 
Q 2819 2513 2741 2316 
L 1575 -541 
Q 1406 -956 1132 -1168 
Q 859 -1381 606 -1381 
Q 422 -1381 303 -1275 
Q 184 -1169 184 -1031 
Q 184 -900 270 -820 
Q 356 -741 506 -741 
Q 609 -741 788 -809 
Q 913 -856 944 -856 
Q 1038 -856 1148 -759 
Q 1259 -663 1372 -384 
L 1575 113 
L 547 2272 
Q 500 2369 397 2513 
Q 319 2622 269 2659 
Q 197 2709 38 2747 
L 38 2863 
z
" transform="scale(0.015625)"/>
       <path id="TimesNewRomanPSMT-20" transform="scale(0.015625)"/>
       <path id="TimesNewRomanPSMT-5b" d="M 1900 -1269 
L 525 -1269 
L 525 4334 
L 1900 4334 
L 1900 4088 
L 994 4088 
L 994 -1025 
L 1900 -1025 
L 1900 -1269 
z
" transform="scale(0.015625)"/>
       <path id="TimesNewRomanPSMT-56" d="M 4544 4238 
L 4544 4122 
Q 4319 4081 4203 3978 
Q 4038 3825 3909 3509 
L 2431 -97 
L 2316 -97 
L 728 3556 
Q 606 3838 556 3900 
Q 478 3997 364 4051 
Q 250 4106 56 4122 
L 56 4238 
L 1788 4238 
L 1788 4122 
Q 1494 4094 1406 4022 
Q 1319 3950 1319 3838 
Q 1319 3681 1463 3350 
L 2541 866 
L 3541 3319 
Q 3688 3681 3688 3822 
Q 3688 3913 3597 3995 
Q 3506 4078 3291 4113 
Q 3275 4116 3238 4122 
L 3238 4238 
L 4544 4238 
z
" transform="scale(0.015625)"/>
       <path id="TimesNewRomanPSMT-5d" d="M 234 4334 
L 1609 4334 
L 1609 -1272 
L 234 -1272 
L 234 -1025 
L 1141 -1025 
L 1141 4088 
L 234 4088 
L 234 4334 
z
" transform="scale(0.015625)"/>
      </defs>
      <use xlink:href="#TimesNewRomanPSMT-45"/>
      <use xlink:href="#TimesNewRomanPSMT-6e" transform="translate(61.083984 0)"/>
      <use xlink:href="#TimesNewRomanPSMT-65" transform="translate(111.083984 0)"/>
      <use xlink:href="#TimesNewRomanPSMT-72" transform="translate(155.46875 0)"/>
      <use xlink:href="#TimesNewRomanPSMT-67" transform="translate(187.019531 0)"/>
      <use xlink:href="#TimesNewRomanPSMT-79" transform="translate(237.019531 0)"/>
      <use xlink:href="#TimesNewRomanPSMT-20" transform="translate(287.019531 0)"/>
      <use xlink:href="#TimesNewRomanPSMT-5b" transform="translate(312.019531 0)"/>
      <use xlink:href="#TimesNewRomanPSMT-65" transform="translate(345.320312 0)"/>
      <use xlink:href="#TimesNewRomanPSMT-56" transform="translate(389.705078 0)"/>
      <use xlink:href="#TimesNewRomanPSMT-5d" transform="translate(461.921875 0)"/>
     </g>
    </g>
   </g>
   <g id="line2d_34">
    <path clip-path="url(#pfd114e50f5)" style="fill: none; stroke-dasharray: 5.55,2.4; stroke-dashoffset: 0; stroke: #000000; stroke-width: 1.5"/>
   </g>
   <g id="line2d_35">
    <path clip-path="url(#pfd114e50f5)" style="fill: none; stroke-dasharray: 5.55,2.4; stroke-dashoffset: 0; stroke: #000000; stroke-width: 1.5"/>
   </g>
   <g id="line2d_36">
    <path clip-path="url(#pfd114e50f5)" style="fill: none; stroke-dasharray: 5.55,2.4; stroke-dashoffset: 0; stroke: #000000; stroke-width: 1.5"/>
   </g>
   <g id="line2d_37">
    <path clip-path="url(#pfd114e50f5)" style="fill: none; stroke-dasharray: 5.55,2.4; stroke-dashoffset: 0; stroke: #000000; stroke-width: 1.5"/>
   </g>
   <g id="line2d_38">
    <path clip-path="url(#pfd114e50f5)" style="fill: none; stroke-dasharray: 5.55,2.4; stroke-dashoffset: 0; stroke: #000000; stroke-width: 1.5"/>
   </g>
   <g id="line2d_39">
    <path clip-path="url(#pfd114e50f5)" style="fill: none; stroke-dasharray: 5.55,2.4; stroke-dashoffset: 0; stroke: #000000; stroke-width: 1.5"/>
   </g>
   <g id="line2d_40">
    <path clip-path="url(#pfd114e50f5)" style="fill: none; stroke-dasharray: 5.55,2.4; stroke-dashoffset: 0; stroke: #000000; stroke-width: 1.5"/>
   </g>
   <g id="line2d_41">
    <path clip-path="url(#pfd114e50f5)" style="fill: none; stroke-dasharray: 5.55,2.4; stroke-dashoffset: 0; stroke: #000000; stroke-width: 1.5"/>
   </g>
   <g id="line2d_42">
    <path clip-path="url(#pfd114e50f5)" style="fill: none; stroke-dasharray: 5.55,2.4; stroke-dashoffset: 0; stroke: #000000; stroke-width: 1.5"/>
   </g>
   <g id="line2d_43">
    <path clip-path="url(#pfd114e50f5)" style="fill: none; stroke-dasharray: 5.55,2.4; stroke-dashoffset: 0; stroke: #000000; stroke-width: 1.5"/>
   </g>
   <g id="line2d_44">
    <path d="M 56.071563 335.832072 
L 71.178082 337.065654 
L 86.284566 340.156136 
L 101.391085 344.080904 
L 116.497605 348.167259 
L 131.604088 352.068486 
L 146.710608 355.607904 
L 161.817128 358.689557 
L 176.923611 361.258434 
L 192.030131 363.281397 
L 207.13665 364.73772 
L 222.243134 365.615378 
L 237.349653 365.908485 
L 237.349653 365.908485 
L 254.79316 365.517633 
L 272.236624 364.345717 
L 289.680131 362.396318 
L 307.123637 359.676347 
L 324.567102 356.197188 
L 342.010608 351.973812 
L 359.454114 347.025536 
L 376.897579 341.376797 
L 394.341085 335.058172 
L 411.784592 328.106636 
L 429.228056 320.567862 
L 446.671563 312.496736 
" clip-path="url(#pfd114e50f5)" style="fill: none; stroke-dasharray: 5.55,2.4; stroke-dashoffset: 0; stroke: #000000; stroke-width: 1.5"/>
   </g>
   <g id="line2d_45">
    <path d="M 56.071563 301.790334 
L 71.178082 300.003545 
L 86.284566 295.257028 
L 101.391085 288.584526 
L 116.497605 280.678952 
L 131.604088 271.919134 
L 146.710608 262.532545 
L 161.817128 252.694077 
L 176.923611 242.591928 
L 192.030131 232.503853 
L 207.13665 222.96233 
L 222.243134 215.203374 
L 237.349653 211.912541 
L 237.349653 211.912541 
L 254.79316 214.429858 
L 272.236624 220.733898 
L 289.680131 228.935137 
L 307.123637 237.987423 
L 324.567102 247.426083 
L 342.010608 257.034645 
L 359.454114 266.690417 
L 376.897579 276.299363 
L 394.341085 285.772439 
L 411.784592 295.02047 
L 429.228056 303.955692 
L 446.671563 312.495457 
" clip-path="url(#pfd114e50f5)" style="fill: none; stroke-dasharray: 5.55,2.4; stroke-dashoffset: 0; stroke: #000000; stroke-width: 1.5"/>
   </g>
   <g id="line2d_46">
    <path d="M 56.071563 227.531524 
L 71.178082 227.369554 
L 86.284566 226.88454 
L 101.391085 226.078399 
L 116.497605 224.956763 
L 131.604088 223.531784 
L 146.710608 221.828028 
L 161.817128 219.890912 
L 176.923611 217.801037 
L 192.030131 215.695426 
L 207.13665 213.796307 
L 222.243134 212.422248 
L 237.349653 211.903458 
L 237.349653 211.903458 
L 254.79316 213.552456 
L 272.236624 217.537356 
L 289.680131 222.444563 
L 307.123637 227.464101 
L 324.567102 232.214328 
L 342.010608 236.506152 
L 359.454114 240.236325 
L 376.897579 243.344207 
L 394.341085 245.791669 
L 411.784592 247.554661 
L 429.228056 248.61783 
L 446.671563 248.973243 
" clip-path="url(#pfd114e50f5)" style="fill: none; stroke-dasharray: 5.55,2.4; stroke-dashoffset: 0; stroke: #000000; stroke-width: 1.5"/>
   </g>
   <g id="line2d_47">
    <path d="M 56.071563 227.531396 
L 71.178082 227.369426 
L 86.284566 226.8839 
L 101.391085 226.076864 
L 116.497605 224.954076 
L 131.604088 223.52769 
L 146.710608 221.822654 
L 161.817128 219.884387 
L 176.923611 217.793233 
L 192.030131 215.686726 
L 207.13665 213.786968 
L 222.243134 212.412525 
L 237.349653 211.901538 
L 237.349653 211.901538 
L 254.79316 213.545804 
L 272.236624 217.531343 
L 289.680131 222.439446 
L 307.123637 227.460007 
L 324.567102 232.211002 
L 342.010608 236.503593 
L 359.454114 240.234406 
L 376.897579 243.342799 
L 394.341085 245.790774 
L 411.784592 247.554022 
L 429.228056 248.617446 
L 446.671563 248.972731 
" clip-path="url(#pfd114e50f5)" style="fill: none; stroke-dasharray: 5.55,2.4; stroke-dashoffset: 0; stroke: #000000; stroke-width: 1.5"/>
   </g>
   <g id="line2d_48">
    <path d="M 56.071563 191.783983 
L 71.178082 191.600008 
L 86.284566 191.050512 
L 101.391085 190.143684 
L 116.497605 188.895133 
L 131.604088 187.333004 
L 146.710608 185.505275 
L 161.817128 183.492547 
L 176.923611 181.433122 
L 192.030131 179.569186 
L 207.13665 178.349293 
L 222.243134 178.470195 
L 237.349653 179.208144 
L 237.349653 179.208144 
L 254.79316 180.140304 
L 272.236624 182.687558 
L 289.680131 186.224417 
L 307.123637 190.138822 
L 324.567102 193.982222 
L 342.010608 197.45831 
L 359.454114 200.372748 
L 376.897579 202.591712 
L 394.341085 204.016179 
L 411.784592 204.565931 
L 429.228056 204.170729 
L 446.671563 202.770443 
" clip-path="url(#pfd114e50f5)" style="fill: none; stroke-dasharray: 5.55,2.4; stroke-dashoffset: 0; stroke: #000000; stroke-width: 1.5"/>
   </g>
   <g id="line2d_49">
    <path d="M 56.071563 169.042026 
L 71.178082 168.847432 
L 86.284566 168.304205 
L 101.391085 167.54118 
L 116.497605 166.797218 
L 131.604088 166.431186 
L 146.710608 166.855302 
L 161.817128 168.332479 
L 176.923611 170.756913 
L 192.030131 173.667385 
L 207.13665 176.444673 
L 222.243134 178.460728 
L 237.349653 179.196374 
L 237.349653 179.196374 
L 254.79316 177.075154 
L 272.236624 171.64519 
L 289.680131 164.351162 
L 307.123637 156.028509 
L 324.567102 161.669828 
L 342.010608 170.300301 
L 359.454114 178.574977 
L 376.897579 185.820771 
L 394.341085 191.857548 
L 411.784592 196.666754 
L 429.228056 200.284086 
L 446.671563 202.759184 
" clip-path="url(#pfd114e50f5)" style="fill: none; stroke-dasharray: 5.55,2.4; stroke-dashoffset: 0; stroke: #000000; stroke-width: 1.5"/>
   </g>
   <g id="line2d_50">
    <path d="M 56.071563 169.001597 
L 71.178082 168.808666 
L 86.284566 168.269533 
L 101.391085 167.513033 
L 116.497605 166.776492 
L 131.604088 166.416601 
L 146.710608 166.843148 
L 161.817128 168.319429 
L 176.923611 170.74156 
L 192.030131 173.649346 
L 207.13665 176.424331 
L 222.243134 178.43885 
L 237.349653 179.180381 
L 237.349653 179.180381 
L 254.79316 177.055196 
L 272.236624 171.62715 
L 289.680131 164.335042 
L 307.123637 156.014436 
L 324.567102 147.083436 
L 342.010608 137.721923 
L 359.454114 128.052846 
L 376.897579 118.132497 
L 394.341085 107.996829 
L 411.784592 97.711344 
L 429.228056 87.584375 
L 446.671563 80.891147 
" clip-path="url(#pfd114e50f5)" style="fill: none; stroke-dasharray: 5.55,2.4; stroke-dashoffset: 0; stroke: #000000; stroke-width: 1.5"/>
   </g>
   <g id="line2d_51">
    <path d="M 56.071563 101.632914 
L 71.178082 101.422327 
L 86.284566 100.968145 
L 101.391085 101.138304 
L 116.497605 107.121346 
L 131.604088 113.071252 
L 146.710608 120.955715 
L 161.817128 130.654602 
L 176.923611 140.493454 
L 192.030131 150.145771 
L 207.13665 158.916208 
L 222.243134 165.186856 
L 237.349653 167.266496 
L 237.349653 167.266496 
L 254.79316 164.805983 
L 272.236624 159.077411 
L 289.680131 153.892065 
L 307.123637 154.74567 
L 324.567102 147.070898 
L 342.010608 137.710664 
L 359.454114 128.042099 
L 376.897579 118.121623 
L 394.341085 107.985186 
L 411.784592 97.69855 
L 429.228056 87.571453 
L 446.671563 80.887564 
" clip-path="url(#pfd114e50f5)" style="fill: none; stroke-dasharray: 5.55,2.4; stroke-dashoffset: 0; stroke: #000000; stroke-width: 1.5"/>
   </g>
   <g id="line2d_52">
    <path d="M 56.071563 74.246279 
L 71.178082 81.099942 
L 86.284566 90.678055 
L 101.391085 99.527942 
L 116.497605 107.104586 
L 131.604088 113.056539 
L 146.710608 117.014827 
L 161.817128 118.763746 
L 176.923611 118.495075 
L 192.030131 116.75396 
L 207.13665 114.327352 
L 222.243134 112.180928 
L 237.349653 111.308004 
L 237.349653 111.308004 
L 254.79316 113.982558 
L 272.236624 120.122708 
L 289.680131 125.483841 
L 307.123637 124.332395 
L 324.567102 116.506528 
L 342.010608 106.046791 
L 359.454114 94.701336 
L 376.897579 83.695813 
L 394.341085 76.30967 
L 411.784592 68.035506 
L 429.228056 62.631258 
L 446.671563 69.453192 
" clip-path="url(#pfd114e50f5)" style="fill: none; stroke-dasharray: 5.55,2.4; stroke-dashoffset: 0; stroke: #000000; stroke-width: 1.5"/>
   </g>
   <g id="line2d_53">
    <path d="M 56.071563 74.239242 
L 71.178082 81.085229 
L 86.284566 90.658225 
L 101.391085 99.509135 
L 116.497605 104.410586 
L 131.604088 111.798136 
L 146.710608 117.001138 
L 161.817128 118.750568 
L 176.923611 118.482921 
L 192.030131 116.743214 
L 207.13665 114.31814 
L 222.243134 112.173252 
L 237.349653 111.300967 
L 237.349653 111.300967 
L 254.79316 110.874676 
L 272.236624 109.589663 
L 289.680131 107.445286 
L 307.123637 104.43822 
L 324.567102 100.564244 
L 342.010608 95.81875 
L 359.454114 90.19739 
L 376.897579 83.109727 
L 394.341085 71.612793 
L 411.784592 60.469993 
L 429.228056 62.612195 
L 446.671563 69.437456 
" clip-path="url(#pfd114e50f5)" style="fill: none; stroke-dasharray: 5.55,2.4; stroke-dashoffset: 0; stroke: #000000; stroke-width: 1.5"/>
   </g>
   <g id="line2d_54">
    <path d="M 56.071563 63.348992 
L 71.178082 67.366132 
L 86.284566 75.352946 
L 101.391085 83.194806 
L 116.497605 87.645274 
L 131.604088 87.666767 
L 146.710608 86.045915 
L 161.817128 85.271887 
L 176.923611 87.721141 
L 192.030131 92.720209 
L 207.13665 97.372435 
L 222.243134 100.265252 
L 237.349653 101.194341 
L 237.349653 101.194341 
L 254.79316 99.953849 
L 272.236624 96.108147 
L 289.680131 89.700221 
L 307.123637 81.173251 
L 324.567102 71.12023 
L 342.010608 60.159231 
L 359.454114 49.038436 
L 376.897579 38.921446 
L 394.341085 42.313606 
L 411.784592 52.26837 
L 429.228056 58.870634 
L 446.671563 48.815439 
" clip-path="url(#pfd114e50f5)" style="fill: none; stroke-dasharray: 5.55,2.4; stroke-dashoffset: 0; stroke: #000000; stroke-width: 1.5"/>
   </g>
   <g id="line2d_55">
    <path d="M 56.071563 63.315984 
L 71.178082 55.7561 
L 86.284566 44.052418 
L 101.391085 31.963513 
L 116.497605 29.793932 
L 131.604088 40.65079 
L 146.710608 51.906432 
L 161.817128 60.648211 
L 176.923611 64.305588 
L 192.030131 63.483072 
L 207.13665 61.189007 
L 222.243134 59.236922 
L 237.349653 58.602475 
L 237.349653 58.602475 
L 254.79316 57.840346 
L 272.236624 55.627266 
L 289.680131 52.038848 
L 307.123637 47.239109 
L 324.567102 41.580775 
L 342.010608 35.966579 
L 359.454114 32.6389 
L 376.897579 34.811167 
L 394.341085 42.29288 
L 411.784592 52.248028 
L 429.228056 49.971491 
L 446.671563 48.813904 
" clip-path="url(#pfd114e50f5)" style="fill: none; stroke-dasharray: 5.55,2.4; stroke-dashoffset: 0; stroke: #000000; stroke-width: 1.5"/>
   </g>
   <g id="line2d_56">
    <path d="M 56.071563 63.270566 
L 71.178082 55.707484 
L 86.284566 44.017235 
L 101.391085 31.942403 
L 116.497605 20.983322 
L 131.604088 14.457181 
L 146.710608 16.422956 
L 161.817128 24.37318 
L 176.923611 34.035732 
L 192.030131 43.375496 
L 207.13665 51.247037 
L 222.243134 56.641818 
L 237.349653 58.574841 
L 237.349653 58.574841 
L 254.79316 57.771003 
L 272.236624 55.560483 
L 289.680131 51.979229 
L 307.123637 47.189981 
L 324.567102 41.545592 
L 342.010608 35.948924 
L 359.454114 32.635957 
L 376.897579 34.793767 
L 394.341085 31.745122 
L 411.784592 29.743397 
L 429.228056 37.870176 
L 446.671563 40.59744 
" clip-path="url(#pfd114e50f5)" style="fill: none; stroke-dasharray: 5.55,2.4; stroke-dashoffset: 0; stroke: #000000; stroke-width: 1.5"/>
   </g>
   <g id="line2d_57">
    <path d="M 56.071563 39.766735 
L 71.178082 35.848236 
L 86.284566 28.714388 
L 101.391085 24.714264 
L 116.497605 20.97475 
L 131.604088 14.438374 
L 146.710608 16.416815 
L 161.817128 24.358467 
L 176.923611 34.007713 
L 192.030131 43.337498 
L 207.13665 51.200212 
L 222.243134 56.587189 
L 237.349653 58.443064 
L 237.349653 58.443064 
L 254.79316 55.883783 
L 272.236624 49.346767 
L 289.680131 40.912808 
L 307.123637 31.739876 
L 324.567102 22.422246 
L 342.010608 13.053185 
L 359.454114 3.322825 
L 376.897579 -0.1603 
L 394.341085 13.35883 
L 411.784592 26.045847 
L 429.228056 33.28 
L 446.671563 40.588868 
" clip-path="url(#pfd114e50f5)" style="fill: none; stroke-dasharray: 5.55,2.4; stroke-dashoffset: 0; stroke: #000000; stroke-width: 1.5"/>
   </g>
   <g id="line2d_58">
    <path clip-path="url(#pfd114e50f5)" style="fill: none; stroke-dasharray: 5.55,2.4; stroke-dashoffset: 0; stroke: #000000; stroke-width: 1.5"/>
   </g>
   <g id="line2d_59">
    <path clip-path="url(#pfd114e50f5)" style="fill: none; stroke: #cc0000; stroke-width: 1.5; stroke-linecap: square"/>
   </g>
   <g id="line2d_60">
    <path clip-path="url(#pfd114e50f5)" style="fill: none; stroke: #cc0000; stroke-width: 1.5; stroke-linecap: square"/>
   </g>
   <g id="line2d_61">
    <path clip-path="url(#pfd114e50f5)" style="fill: none; stroke: #cc0000; stroke-width: 1.5; stroke-linecap: square"/>
   </g>
   <g id="line2d_62">
    <path clip-path="url(#pfd114e50f5)" style="fill: none; stroke: #cc0000; stroke-width: 1.5; stroke-linecap: square"/>
   </g>
   <g id="line2d_63">
    <path clip-path="url(#pfd114e50f5)" style="fill: none; stroke: #cc0000; stroke-width: 1.5; stroke-linecap: square"/>
   </g>
   <g id="line2d_64">
    <path clip-path="url(#pfd114e50f5)" style="fill: none; stroke: #cc0000; stroke-width: 1.5; stroke-linecap: square"/>
   </g>
   <g id="line2d_65">
    <path clip-path="url(#pfd114e50f5)" style="fill: none; stroke: #cc0000; stroke-width: 1.5; stroke-linecap: square"/>
   </g>
   <g id="line2d_66">
    <path clip-path="url(#pfd114e50f5)" style="fill: none; stroke: #cc0000; stroke-width: 1.5; stroke-linecap: square"/>
   </g>
   <g id="line2d_67">
    <path clip-path="url(#pfd114e50f5)" style="fill: none; stroke: #cc0000; stroke-width: 1.5; stroke-linecap: square"/>
   </g>
   <g id="line2d_68">
    <path clip-path="url(#pfd114e50f5)" style="fill: none; stroke: #cc0000; stroke-width: 1.5; stroke-linecap: square"/>
   </g>
   <g id="line2d_69">
    <path d="M 56.071563 337.552972 
L 71.178082 338.829414 
L 86.284566 341.998834 
L 101.391085 345.963774 
L 116.497605 350.020063 
L 131.604088 353.834165 
L 146.710608 357.248203 
L 161.817128 360.194497 
L 176.923611 362.646054 
L 192.030131 364.58381 
L 207.13665 365.992924 
L 208.526177 366.0725 
M 265.418999 366.0725 
L 272.236624 365.624718 
L 289.680131 363.737369 
L 307.123637 361.117446 
L 324.567102 357.770959 
L 342.010608 353.688315 
L 359.454114 348.855184 
L 376.897579 343.256469 
L 394.341085 336.87106 
L 411.784592 329.705483 
L 429.228056 321.779695 
L 446.671563 313.20334 
" clip-path="url(#pfd114e50f5)" style="fill: none; stroke: #cc0000; stroke-width: 1.5; stroke-linecap: square"/>
   </g>
   <g id="line2d_70">
    <path d="M 56.071563 302.558732 
L 71.178082 300.744949 
L 86.284566 295.981288 
L 101.391085 289.442225 
L 116.497605 281.743273 
L 131.604088 272.984478 
L 146.710608 263.349176 
L 161.817128 253.571479 
L 176.923611 243.07528 
L 192.030131 232.628849 
L 207.13665 222.800232 
L 222.243134 215.04601 
L 237.349653 211.920985 
L 237.349653 211.920985 
L 254.79316 214.32303 
L 272.236624 220.556831 
L 289.680131 228.895732 
L 307.123637 238.20671 
L 324.567102 247.836382 
L 342.010608 257.567893 
L 359.454114 267.472121 
L 376.897579 277.186872 
L 394.341085 286.474309 
L 411.784592 295.427059 
L 429.228056 304.314688 
L 446.671563 313.201293 
" clip-path="url(#pfd114e50f5)" style="fill: none; stroke: #cc0000; stroke-width: 1.5; stroke-linecap: square"/>
   </g>
   <g id="line2d_71">
    <path d="M 56.071563 228.141791 
L 71.178082 227.958967 
L 86.284566 227.418427 
L 101.391085 226.521962 
L 116.497605 225.28275 
L 131.604088 223.721133 
L 146.710608 221.8769 
L 161.817128 219.816323 
L 176.923611 217.644184 
L 192.030131 215.519638 
L 207.13665 213.671567 
L 222.243134 212.38489 
L 237.349653 211.903074 
L 237.349653 211.903074 
L 254.79316 213.457014 
L 272.236624 217.368605 
L 289.680131 222.364858 
L 307.123637 227.574256 
L 324.567102 232.549015 
L 342.010608 237.059613 
L 359.454114 240.984637 
L 376.897579 244.255 
L 394.341085 246.827971 
L 411.784592 248.681415 
L 429.228056 249.798958 
L 446.671563 250.172666 
" clip-path="url(#pfd114e50f5)" style="fill: none; stroke: #cc0000; stroke-width: 1.5; stroke-linecap: square"/>
   </g>
   <g id="line2d_72">
    <path d="M 56.071563 228.140767 
L 71.178082 227.960758 
L 86.284566 227.417659 
L 101.391085 226.517996 
L 116.497605 225.276609 
L 131.604088 223.714608 
L 146.710608 221.870759 
L 161.817128 219.809927 
L 176.923611 217.635484 
L 192.030131 215.507356 
L 207.13665 213.655831 
L 222.243134 212.367362 
L 237.349653 211.901538 
L 237.349653 211.901538 
L 254.79316 213.399058 
L 272.236624 217.235805 
L 289.680131 222.208005 
L 307.123637 227.450539 
L 324.567102 232.486965 
L 342.010608 237.060381 
L 359.454114 241.025194 
L 376.897579 244.308223 
L 394.341085 246.873133 
L 411.784592 248.70905 
L 429.228056 249.8106 
L 446.671563 250.177912 
" clip-path="url(#pfd114e50f5)" style="fill: none; stroke: #cc0000; stroke-width: 1.5; stroke-linecap: square"/>
   </g>
   <g id="line2d_73">
    <path d="M 56.071563 184.11919 
L 71.178082 183.918071 
L 86.284566 183.319063 
L 101.391085 182.332401 
L 116.497605 180.978301 
L 131.604088 179.290408 
L 146.710608 177.321947 
L 161.817128 175.164265 
L 176.923611 172.964747 
L 192.030131 170.981957 
L 207.13665 169.686452 
L 222.243134 169.695919 
L 237.349653 170.32768 
L 237.349653 170.32768 
L 254.79316 171.353874 
L 272.236624 174.145747 
L 289.680131 178.012687 
L 307.123637 182.291205 
L 324.567102 186.489889 
L 342.010608 190.281602 
L 359.454114 193.452045 
L 376.897579 195.860742 
L 394.341085 197.412124 
L 411.784592 198.038255 
L 429.228056 197.674398 
L 446.671563 196.25556 
" clip-path="url(#pfd114e50f5)" style="fill: none; stroke: #cc0000; stroke-width: 1.5; stroke-linecap: square"/>
   </g>
   <g id="line2d_74">
    <path d="M 56.071563 160.095929 
L 71.178082 159.892379 
L 86.284566 159.332904 
L 101.391085 158.549409 
L 116.497605 157.784977 
L 131.604088 157.408198 
L 146.710608 157.850865 
L 161.817128 159.39022 
L 176.923611 161.899861 
L 192.030131 164.871104 
L 207.13665 167.648008 
L 222.243134 169.637452 
L 237.349653 170.316549 
L 237.349653 170.316549 
L 254.79316 168.275547 
L 272.236624 162.88051 
L 289.680131 155.501531 
L 307.123637 147.105441 
L 324.567102 153.003277 
L 342.010608 162.112239 
L 359.454114 170.867068 
L 376.897579 178.533269 
L 394.341085 184.898463 
L 411.784592 189.940134 
L 429.228056 193.701013 
L 446.671563 196.251594 
" clip-path="url(#pfd114e50f5)" style="fill: none; stroke: #cc0000; stroke-width: 1.5; stroke-linecap: square"/>
   </g>
   <g id="line2d_75">
    <path d="M 56.071563 160.033111 
L 71.178082 159.833655 
L 86.284566 159.284671 
L 101.391085 158.513842 
L 116.497605 157.759389 
L 131.604088 157.387088 
L 146.710608 157.830523 
L 161.817128 159.371158 
L 176.923611 161.881054 
L 192.030131 164.85025 
L 207.13665 167.6237 
L 222.243134 169.595488 
L 237.349653 170.291473 
L 237.349653 170.291473 
L 254.79316 168.308043 
L 272.236624 163.025848 
L 289.680131 155.703546 
L 307.123637 147.226087 
L 324.567102 138.128511 
L 342.010608 128.481184 
L 359.454114 118.747498 
L 376.897579 108.820624 
L 394.341085 98.718092 
L 411.784592 88.570013 
L 429.228056 78.720031 
L 446.671563 72.399231 
" clip-path="url(#pfd114e50f5)" style="fill: none; stroke: #cc0000; stroke-width: 1.5; stroke-linecap: square"/>
   </g>
   <g id="line2d_76">
    <path d="M 56.071563 94.452112 
L 71.178082 94.203271 
L 86.284566 93.626141 
L 101.391085 93.488735 
L 116.497605 97.986156 
L 131.604088 103.673276 
L 146.710608 112.140883 
L 161.817128 121.665262 
L 176.923611 131.421977 
L 192.030131 141.114595 
L 207.13665 149.815818 
L 222.243134 155.798092 
L 237.349653 157.74506 
L 237.349653 157.74506 
L 254.79316 155.418883 
L 272.236624 149.873006 
L 289.680131 144.659002 
L 307.123637 145.639523 
L 324.567102 138.162159 
L 342.010608 128.470437 
L 359.454114 118.804174 
L 376.897579 109.013428 
L 394.341085 98.958488 
L 411.784592 88.707675 
L 429.228056 78.727835 
L 446.671563 72.392067 
" clip-path="url(#pfd114e50f5)" style="fill: none; stroke: #cc0000; stroke-width: 1.5; stroke-linecap: square"/>
   </g>
   <g id="line2d_77">
    <path d="M 56.071563 65.517933 
L 71.178082 72.381704 
L 86.284566 81.924633 
L 101.391085 90.619203 
L 116.497605 97.997414 
L 131.604088 103.689524 
L 146.710608 107.3414 
L 161.817128 108.83457 
L 176.923611 108.350706 
L 192.030131 106.42229 
L 207.13665 103.806844 
L 222.243134 101.484377 
L 237.349653 100.524327 
L 237.349653 100.524327 
L 254.79316 103.396545 
L 272.236624 109.881362 
L 289.680131 115.554026 
L 307.123637 114.588858 
L 324.567102 106.773609 
L 342.010608 96.311313 
L 359.454114 85.036353 
L 376.897579 73.338683 
L 394.341085 66.020859 
L 411.784592 57.903548 
L 429.228056 53.861844 
L 446.671563 60.603177 
" clip-path="url(#pfd114e50f5)" style="fill: none; stroke: #cc0000; stroke-width: 1.5; stroke-linecap: square"/>
   </g>
   <g id="line2d_78">
    <path d="M 56.071563 65.50757 
L 71.178082 72.355732 
L 86.284566 81.895591 
L 101.391085 90.608712 
L 116.497605 96.198344 
L 131.604088 103.212442 
L 146.710608 107.338201 
L 161.817128 108.80412 
L 176.923611 108.307463 
L 192.030131 106.38506 
L 207.13665 103.785862 
L 222.243134 101.477341 
L 237.349653 100.521896 
L 237.349653 100.521896 
L 254.79316 100.118506 
L 272.236624 98.8926 
L 289.680131 96.832535 
L 307.123637 93.917457 
L 324.567102 90.121651 
L 342.010608 85.42375 
L 359.454114 79.820685 
L 376.897579 73.655075 
L 394.341085 62.527372 
L 411.784592 51.839904 
L 429.228056 54.61054 
L 446.671563 60.577973 
" clip-path="url(#pfd114e50f5)" style="fill: none; stroke: #cc0000; stroke-width: 1.5; stroke-linecap: square"/>
   </g>
   <g id="line2d_79">
    <path d="M 56.071563 54.620519 
L 71.178082 59.738057 
L 86.284566 67.868546 
L 101.391085 75.87404 
L 116.497605 80.651262 
L 131.604088 80.805684 
L 146.710608 79.339125 
L 161.817128 78.949424 
L 176.923611 81.891881 
L 192.030131 87.065585 
L 207.13665 91.590384 
L 222.243134 94.190989 
L 237.349653 94.962714 
L 237.349653 94.962714 
L 254.79316 93.941381 
L 272.236624 90.480134 
L 289.680131 84.287145 
L 307.123637 75.807512 
L 324.567102 65.775089 
L 342.010608 54.92079 
L 359.454114 43.972584 
L 376.897579 33.849965 
L 394.341085 32.629049 
L 411.784592 43.060127 
L 429.228056 49.014767 
L 446.671563 39.365009 
" clip-path="url(#pfd114e50f5)" style="fill: none; stroke: #cc0000; stroke-width: 1.5; stroke-linecap: square"/>
   </g>
   <g id="line2d_80">
    <path d="M 56.071563 55.345546 
L 71.178082 46.650336 
L 86.284566 34.456522 
L 101.391085 21.892837 
L 116.497605 21.867121 
L 131.604088 33.836788 
L 146.710608 45.301737 
L 161.817128 53.796339 
L 176.923611 57.095232 
L 192.030131 56.126226 
L 207.13665 53.700769 
L 222.243134 51.605009 
L 237.349653 51.010991 
L 237.349653 51.010991 
L 254.79316 50.082286 
L 272.236624 47.678194 
L 289.680131 43.860254 
L 307.123637 38.825492 
L 324.567102 33.183022 
L 342.010608 28.332235 
L 359.454114 24.648375 
L 376.897579 25.284229 
L 394.341085 36.351674 
L 411.784592 45.241222 
L 429.228056 41.738395 
L 446.671563 39.364625 
" clip-path="url(#pfd114e50f5)" style="fill: none; stroke: #cc0000; stroke-width: 1.5; stroke-linecap: square"/>
   </g>
   <g id="line2d_81">
    <path d="M 56.071563 54.512922 
L 71.178082 46.574469 
L 86.284566 34.287899 
L 101.391085 21.496995 
L 116.497605 9.396064 
L 131.604088 4.768402 
L 146.710608 8.865631 
L 161.817128 16.611665 
L 176.923611 25.938379 
L 192.030131 35.216732 
L 207.13665 43.261886 
L 222.243134 48.918429 
L 237.349653 51.019691 
L 237.349653 51.019691 
L 254.79316 50.22353 
L 272.236624 47.864984 
L 289.680131 44.082867 
L 307.123637 39.188965 
L 324.567102 33.669316 
L 342.010608 28.34439 
L 359.454114 26.514742 
L 376.897579 29.469736 
L 394.341085 26.071691 
L 411.784592 22.89613 
L 429.228056 28.456464 
L 446.671563 32.57557 
" clip-path="url(#pfd114e50f5)" style="fill: none; stroke: #cc0000; stroke-width: 1.5; stroke-linecap: square"/>
   </g>
   <g id="line2d_82">
    <path d="M 56.071563 32.386605 
L 71.178082 27.281221 
L 86.284566 18.694503 
L 101.391085 14.794299 
L 116.497605 9.26224 
L 131.604088 5.361652 
L 146.710608 8.850406 
L 161.817128 16.806259 
L 176.923611 26.050965 
L 192.030131 35.225816 
L 207.13665 43.218771 
L 222.243134 48.857147 
L 237.349653 50.871538 
L 237.349653 50.871538 
L 254.79316 48.14018 
L 272.236624 41.433901 
L 289.680131 32.907443 
L 307.123637 23.676811 
L 324.567102 14.336535 
L 342.010608 5.308558 
L 354.751914 -1 
M 388.307562 -1 
L 394.341085 3.696789 
L 411.784592 16.540019 
L 429.228056 25.52373 
L 446.671563 32.565719 
" clip-path="url(#pfd114e50f5)" style="fill: none; stroke: #cc0000; stroke-width: 1.5; stroke-linecap: square"/>
   </g>
   <g id="line2d_83">
    <path clip-path="url(#pfd114e50f5)" style="fill: none; stroke: #cc0000; stroke-width: 1.5; stroke-linecap: square"/>
   </g>
   <g id="line2d_84">
    <path d="M 56.071563 211.901538 
L 446.671563 211.901538 
" clip-path="url(#pfd114e50f5)" style="fill: none; stroke-dasharray: 1.5,2.475; stroke-dashoffset: 0; stroke: #000000; stroke-width: 1.5"/>
   </g>
   <g id="patch_3">
    <path d="M 56.071563 339.84 
L 56.071563 7.2 
" style="fill: none; stroke: #000000; stroke-width: 1.2; stroke-linejoin: miter; stroke-linecap: square"/>
   </g>
   <g id="patch_4">
    <path d="M 446.671563 339.84 
L 446.671563 7.2 
" style="fill: none; stroke: #000000; stroke-width: 1.2; stroke-linejoin: miter; stroke-linecap: square"/>
   </g>
   <g id="patch_5">
    <path d="M 56.071563 339.84 
L 446.671563 339.84 
" style="fill: none; stroke: #000000; stroke-width: 1.2; stroke-linejoin: miter; stroke-linecap: square"/>
   </g>
   <g id="patch_6">
    <path d="M 56.071563 7.2 
L 446.671563 7.2 
" style="fill: none; stroke: #000000; stroke-width: 1.2; stroke-linejoin: miter; stroke-linecap: square"/>
   </g>
   <g id="legend_1">
    <g id="patch_7">
     <path d="M 181.371563 331.84 
L 321.371563 331.84 
Q 324.571563 331.84 324.571563 328.64 
L 324.571563 282.4975 
Q 324.571563 279.2975 321.371563 279.2975 
L 181.371563 279.2975 
Q 178.171563 279.2975 178.171563 282.4975 
L 178.171563 328.64 
Q 178.171563 331.84 181.371563 331.84 
z
" style="fill: #ffffff; stroke: #cccccc; stroke-linejoin: miter"/>
    </g>
    <g id="line2d_85">
     <path d="M 184.571563 291.2975 
L 200.571563 291.2975 
L 216.571563 291.2975 
" style="fill: none; stroke-dasharray: 5.55,2.4; stroke-dashoffset: 0; stroke: #000000; stroke-width: 1.5"/>
    </g>
    <g id="text_11">
     <!-- PBE -->
     <g transform="translate(229.371563 296.8975) scale(0.16 -0.16)">
      <defs>
       <path id="TimesNewRomanPSMT-50" d="M 1313 1984 
L 1313 750 
Q 1313 350 1400 253 
Q 1519 116 1759 116 
L 1922 116 
L 1922 0 
L 106 0 
L 106 116 
L 266 116 
Q 534 116 650 291 
Q 713 388 713 750 
L 713 3488 
Q 713 3888 628 3984 
Q 506 4122 266 4122 
L 106 4122 
L 106 4238 
L 1659 4238 
Q 2228 4238 2556 4120 
Q 2884 4003 3109 3725 
Q 3334 3447 3334 3066 
Q 3334 2547 2992 2222 
Q 2650 1897 2025 1897 
Q 1872 1897 1694 1919 
Q 1516 1941 1313 1984 
z
M 1313 2163 
Q 1478 2131 1606 2115 
Q 1734 2100 1825 2100 
Q 2150 2100 2386 2351 
Q 2622 2603 2622 3003 
Q 2622 3278 2509 3514 
Q 2397 3750 2190 3867 
Q 1984 3984 1722 3984 
Q 1563 3984 1313 3925 
L 1313 2163 
z
" transform="scale(0.015625)"/>
       <path id="TimesNewRomanPSMT-42" d="M 2956 2163 
Q 3397 2069 3616 1863 
Q 3919 1575 3919 1159 
Q 3919 844 3719 555 
Q 3519 266 3170 133 
Q 2822 0 2106 0 
L 106 0 
L 106 116 
L 266 116 
Q 531 116 647 284 
Q 719 394 719 750 
L 719 3488 
Q 719 3881 628 3984 
Q 506 4122 266 4122 
L 106 4122 
L 106 4238 
L 1938 4238 
Q 2450 4238 2759 4163 
Q 3228 4050 3475 3764 
Q 3722 3478 3722 3106 
Q 3722 2788 3528 2536 
Q 3334 2284 2956 2163 
z
M 1319 2331 
Q 1434 2309 1582 2298 
Q 1731 2288 1909 2288 
Q 2366 2288 2595 2386 
Q 2825 2484 2947 2687 
Q 3069 2891 3069 3131 
Q 3069 3503 2766 3765 
Q 2463 4028 1881 4028 
Q 1569 4028 1319 3959 
L 1319 2331 
z
M 1319 306 
Q 1681 222 2034 222 
Q 2600 222 2897 476 
Q 3194 731 3194 1106 
Q 3194 1353 3059 1581 
Q 2925 1809 2622 1940 
Q 2319 2072 1872 2072 
Q 1678 2072 1540 2065 
Q 1403 2059 1319 2044 
L 1319 306 
z
" transform="scale(0.015625)"/>
      </defs>
      <use xlink:href="#TimesNewRomanPSMT-50"/>
      <use xlink:href="#TimesNewRomanPSMT-42" transform="translate(55.615234 0)"/>
      <use xlink:href="#TimesNewRomanPSMT-45" transform="translate(122.314453 0)"/>
     </g>
    </g>
    <g id="line2d_86">
     <path d="M 184.571563 316.32 
L 200.571563 316.32 
L 216.571563 316.32 
" style="fill: none; stroke: #cc0000; stroke-width: 1.5; stroke-linecap: square"/>
    </g>
    <g id="text_12">
     <!-- $G^0W^0$@PBE -->
     <g transform="translate(229.371563 321.92) scale(0.16 -0.16)">
      <defs>
       <path id="Cmmi10-47" d="M 934 1403 
Q 934 1006 1092 707 
Q 1250 409 1547 246 
Q 1844 84 2234 84 
Q 2616 84 2959 264 
Q 3303 444 3391 781 
L 3531 1331 
Q 3534 1350 3537 1370 
Q 3541 1391 3541 1403 
Q 3541 1469 3500 1478 
Q 3341 1522 2859 1522 
Q 2797 1522 2797 1606 
Q 2816 1684 2831 1715 
Q 2847 1747 2906 1747 
L 4556 1747 
Q 4622 1747 4622 1663 
Q 4619 1647 4609 1609 
Q 4600 1572 4584 1547 
Q 4569 1522 4538 1522 
Q 4325 1522 4226 1487 
Q 4128 1453 4091 1306 
L 3950 756 
L 3769 44 
Q 3759 0 3713 0 
Q 3659 0 3559 144 
Q 3459 288 3419 384 
Q 3197 122 2825 -9 
Q 2453 -141 2059 -141 
Q 1563 -141 1164 84 
Q 766 309 545 709 
Q 325 1109 325 1613 
Q 325 2150 564 2673 
Q 803 3197 1212 3611 
Q 1622 4025 2142 4269 
Q 2663 4513 3194 4513 
Q 3406 4513 3601 4447 
Q 3797 4381 3964 4251 
Q 4131 4122 4238 3950 
L 4744 4500 
Q 4744 4513 4775 4513 
L 4813 4513 
Q 4838 4513 4855 4492 
Q 4872 4472 4872 4447 
L 4434 2719 
Q 4434 2675 4384 2675 
L 4269 2675 
Q 4219 2675 4219 2747 
Q 4244 2888 4244 3078 
Q 4244 3394 4137 3672 
Q 4031 3950 3806 4119 
Q 3581 4288 3256 4288 
Q 2741 4288 2303 4027 
Q 1866 3766 1562 3337 
Q 1259 2909 1096 2396 
Q 934 1884 934 1403 
z
" transform="scale(0.015625)"/>
       <path id="Cmr10-30" d="M 1600 -141 
Q 816 -141 533 504 
Q 250 1150 250 2041 
Q 250 2597 351 3087 
Q 453 3578 754 3920 
Q 1056 4263 1600 4263 
Q 2022 4263 2290 4056 
Q 2559 3850 2700 3523 
Q 2841 3197 2892 2823 
Q 2944 2450 2944 2041 
Q 2944 1491 2842 1011 
Q 2741 531 2444 195 
Q 2147 -141 1600 -141 
z
M 1600 25 
Q 1956 25 2131 390 
Q 2306 756 2347 1200 
Q 2388 1644 2388 2144 
Q 2388 2625 2347 3031 
Q 2306 3438 2132 3767 
Q 1959 4097 1600 4097 
Q 1238 4097 1063 3765 
Q 888 3434 847 3029 
Q 806 2625 806 2144 
Q 806 1788 823 1472 
Q 841 1156 916 820 
Q 991 484 1158 254 
Q 1325 25 1600 25 
z
" transform="scale(0.015625)"/>
       <path id="Cmmi10-57" d="M 1141 -72 
L 844 4006 
Q 822 4100 703 4123 
Q 584 4147 409 4147 
Q 347 4147 347 4231 
Q 369 4313 381 4342 
Q 394 4372 453 4372 
L 1978 4372 
Q 2041 4372 2041 4288 
Q 2016 4147 1959 4147 
Q 1447 4147 1416 3969 
L 1644 738 
L 3244 3525 
L 3213 4006 
Q 3191 4100 3072 4123 
Q 2953 4147 2778 4147 
Q 2713 4147 2713 4231 
Q 2734 4313 2746 4342 
Q 2759 4372 2822 4372 
L 4347 4372 
Q 4409 4372 4409 4288 
Q 4406 4272 4397 4234 
Q 4388 4197 4372 4172 
Q 4356 4147 4325 4147 
Q 3809 4147 3781 3969 
L 3781 3922 
L 4013 738 
L 5753 3775 
Q 5791 3844 5791 3909 
Q 5791 4041 5662 4094 
Q 5534 4147 5375 4147 
Q 5313 4147 5313 4231 
Q 5325 4281 5333 4309 
Q 5341 4338 5361 4355 
Q 5381 4372 5422 4372 
L 6644 4372 
Q 6706 4372 6706 4288 
Q 6703 4272 6693 4233 
Q 6684 4194 6667 4170 
Q 6650 4147 6625 4147 
Q 6169 4147 5931 3731 
Q 5913 3713 5913 3713 
L 3744 -72 
Q 3709 -141 3634 -141 
L 3584 -141 
Q 3506 -141 3506 -72 
L 3263 3225 
L 1381 -72 
Q 1334 -141 1269 -141 
L 1216 -141 
Q 1141 -141 1141 -72 
z
" transform="scale(0.015625)"/>
       <path id="TimesNewRomanPSMT-40" d="M 4400 2994 
L 4034 1747 
Q 3831 1047 3787 859 
Q 3744 672 3744 559 
Q 3744 459 3811 390 
Q 3878 322 3978 322 
Q 4206 322 4526 550 
Q 4847 778 5075 1290 
Q 5303 1803 5303 2359 
Q 5303 2894 5045 3347 
Q 4788 3800 4317 4042 
Q 3847 4284 3278 4284 
Q 2556 4284 1937 3901 
Q 1319 3519 958 2800 
Q 597 2081 597 1306 
Q 597 588 914 0 
Q 1231 -588 1806 -889 
Q 2381 -1191 3044 -1191 
Q 3866 -1191 4530 -750 
Q 5194 -309 5556 538 
L 5738 538 
Q 5456 -319 4715 -850 
Q 3975 -1381 3028 -1381 
Q 2284 -1381 1646 -1029 
Q 1009 -678 656 -32 
Q 303 613 303 1388 
Q 303 2213 690 2927 
Q 1078 3641 1776 4042 
Q 2475 4444 3259 4444 
Q 3906 4444 4426 4176 
Q 4947 3909 5219 3395 
Q 5491 2881 5491 2303 
Q 5491 1731 5236 1170 
Q 4981 609 4587 353 
Q 4194 97 3766 97 
Q 3528 97 3408 209 
Q 3288 322 3288 525 
Q 3288 700 3344 984 
Q 2881 425 2603 259 
Q 2325 94 2113 94 
Q 1891 94 1719 292 
Q 1547 491 1547 822 
Q 1547 1275 1842 1837 
Q 2138 2400 2625 2753 
Q 2984 3013 3269 3013 
Q 3478 3013 3617 2905 
Q 3756 2797 3806 2581 
L 3909 2925 
L 4400 2994 
z
M 3303 2866 
Q 3069 2866 2828 2619 
Q 2475 2256 2225 1641 
Q 2041 1191 2041 916 
Q 2041 719 2152 595 
Q 2263 472 2400 472 
Q 2581 472 2781 609 
Q 2981 747 3200 1033 
Q 3419 1319 3519 1606 
Q 3694 2103 3694 2416 
Q 3694 2622 3580 2744 
Q 3466 2866 3303 2866 
z
" transform="scale(0.015625)"/>
      </defs>
      <use xlink:href="#Cmmi10-47" transform="translate(0 0.109375)"/>
      <use xlink:href="#Cmr10-30" transform="translate(90.445469 38.373438) scale(0.7)"/>
      <use xlink:href="#Cmmi10-57" transform="translate(131.822812 0.109375)"/>
      <use xlink:href="#Cmr10-30" transform="translate(237.577109 38.373438) scale(0.7)"/>
      <use xlink:href="#TimesNewRomanPSMT-40" transform="translate(278.954453 0.109375)"/>
      <use xlink:href="#TimesNewRomanPSMT-50" transform="translate(371.044297 0.109375)"/>
      <use xlink:href="#TimesNewRomanPSMT-42" transform="translate(426.659531 0.109375)"/>
      <use xlink:href="#TimesNewRomanPSMT-45" transform="translate(493.35875 0.109375)"/>
     </g>
    </g>
   </g>
  </g>
 </g>
 <defs>
  <clipPath id="pfd114e50f5">
   <rect x="56.071563" y="7.2" width="390.6" height="332.64"/>
  </clipPath>
 </defs>
</svg>
